<?xml version="1.0" ?>
<!-- Uploaded to: SVG Repo, www.svgrepo.com, Generator: SVG Repo Mixer Tools -->
<svg width="800px" height="800px" viewBox="0 0 512 512" id="Layer_1" version="1.1" xml:space="preserve" xmlns="http://www.w3.org/2000/svg" xmlns:xlink="http://www.w3.org/1999/xlink">
<style type="text/css">
	.st0{fill:#3B4652;}
	.st1{fill:#2B79C2;}
</style>
<g>
<path class="st0" d="M462.1,173.6H176.9l-7.6-37.8l-6.4-32.1c-2.5-12.5-13.5-21.5-26.2-21.5h-78c-7.4,0-14.1,3-18.9,7.8   c-4.8,4.9-7.8,11.6-7.8,18.9c0,14.8,12,26.8,26.8,26.8h56l50.7,249.9c9.9-9.5,23.2-14.9,37.3-14.9c1.3,0,2.7,0.1,4,0.1l0.2,0   c0.5,0,0.9,0.1,1.4,0.1c0.5,0,1,0.1,1.5,0.2l0.5,0.1l0.7,0.1c0.3,0.1,0.7,0.1,1,0.2l0.3,0.1c0.4,0.1,0.8,0.1,1.1,0.2   c0.6,0.1,1.2,0.3,1.7,0.4l0.4,0.1c0.5,0.1,1.6,0.4,1.6,0.4l-4.6-21.2h228.5c8.9,0,16.5-6.5,17.8-15.3l21-142.1   C481.5,183.4,473.1,173.6,462.1,173.6z"/>
<path class="st0" d="M356.5,405.1h-82.2c-7.6,0-15.2-1-22.5-2.8c3.2,7,4.9,14.6,4.9,22.6c0,7.9-1.7,15.5-4.8,22.4   c6.8-1.7,13.8-2.5,20.9-2.5h83.6c7.6,0,15.2,1,22.5,2.8c-3.2-7-4.9-14.6-4.9-22.6c0-8,1.7-15.7,4.9-22.6   C371.7,404.1,364.2,405.1,356.5,405.1z"/>
<path class="st1" d="M223.5,390.6c-0.9-0.5-1.7-1-2.6-1.5c0,0,0,0,0,0c0,0-0.1,0-0.1,0v0c-1.9-1-4-1.8-6.1-2.5   c-0.4-0.1-0.8-0.2-1.2-0.3c-0.4-0.1-0.9-0.2-1.3-0.3c-0.5-0.1-1-0.2-1.5-0.3c-0.4-0.1-0.7-0.1-1.1-0.2c-0.4-0.1-0.8-0.1-1.2-0.2   c-0.5-0.1-1-0.1-1.5-0.2c-0.3,0-0.7-0.1-1.1-0.1c-1-0.1-2.1-0.1-3.1-0.1c-14.2,0-26.6,7.3-33.8,18.4c-4,6.2-6.3,13.7-6.3,21.7   c0,0.5,0,1,0,1.5c0,0.5,0.1,0.9,0.1,1.3c0,0.5,0.1,1.1,0.2,1.7c0,0.2,0,0.4,0.1,0.6c0.1,0.4,0.1,0.9,0.2,1.3l0,0.2   c0.1,0.6,0.2,1.1,0.3,1.7c0.1,0.6,0.3,1.2,0.4,1.8c0.3,1.2,0.7,2.4,1.1,3.6c0.4,1,0.8,2,1.2,3c0,0,0,0,0,0   c4.1,9.1,11.5,16.3,20.7,20.2c0.1,0,0.1,0.1,0.2,0.1c0.3,0.1,0.7,0.3,1,0.4c0.4,0.2,0.8,0.3,1.2,0.4c1.1,0.4,2.2,0.8,3.4,1.1   c0.7,0.2,1.3,0.3,1.9,0.4c0.6,0.1,1.1,0.2,1.6,0.3c0,0,0,0,0.1,0c0.5,0.1,1.1,0.2,1.6,0.2c0.8,0.1,1.5,0.2,2.3,0.2   c0.4,0,0.8,0,1.1,0c0.5,0,0.9,0,1.4,0c0.5,0,1,0,1.5,0c0.4,0,0.9,0,1.3-0.1c0.4,0,0.8-0.1,1.3-0.1c0.1,0,0.2,0,0.4,0   c0.4,0,0.8-0.1,1.2-0.1c0.5-0.1,0.9-0.1,1.4-0.2c1.4-0.2,2.7-0.5,4-0.9c0.4-0.1,0.9-0.3,1.3-0.4c0.5-0.1,1-0.3,1.5-0.5   c0.4-0.1,0.7-0.3,1.1-0.4c0.3-0.1,0.6-0.3,0.9-0.4c0.2-0.1,0.5-0.2,0.7-0.3c1.1-0.5,2.1-1,3.2-1.6c0.4-0.2,0.7-0.4,1.1-0.7   c0,0,0.1,0,0.1-0.1c11.5-7,19.2-19.7,19.2-34.2C242.8,410.4,235.1,397.7,223.5,390.6z M172.1,450.7c0.2,0.3,0.4,0.5,0.6,0.7   c0.4,0.5,0.9,0.9,1.3,1.4c-1.8-1.9-3.5-3.9-4.9-6.1c0.3,0.4,0.5,0.8,0.8,1.2C170.6,448.9,171.3,449.8,172.1,450.7z M169,446.6   c-0.6-0.9-1.1-1.8-1.6-2.7c0.2,0.3,0.4,0.7,0.6,1C168.3,445.5,168.6,446,169,446.6z M167.2,443.5c-0.1-0.1-0.1-0.3-0.2-0.4   C167,443.2,167.1,443.4,167.2,443.5z M174.4,453.3c0.4,0.4,0.8,0.8,1.3,1.2C175.2,454.1,174.8,453.7,174.4,453.3z M182.1,459.3   C182.1,459.3,182.1,459.3,182.1,459.3c-0.7-0.4-1.3-0.8-2-1.3C180.8,458.5,181.5,458.9,182.1,459.3z M179.7,457.7   c-0.6-0.4-1.2-0.9-1.8-1.3C178.5,456.9,179.1,457.3,179.7,457.7z M177.9,456.3c-0.2-0.1-0.3-0.3-0.5-0.4   C177.5,456.1,177.7,456.2,177.9,456.3z M176.6,455.3c-0.2-0.2-0.5-0.4-0.7-0.6C176.1,454.9,176.4,455.1,176.6,455.3z M184.7,460.7   c0.6,0.3,1.2,0.6,1.7,0.8C185.9,461.3,185.3,461,184.7,460.7z M202.7,441c-7.8,0-14.3-5.5-15.7-12.9c-0.2-1-0.3-2.1-0.3-3.1   c0-8.9,7.2-16,16-16c7.8,0,14.2,5.5,15.7,12.9c0.2,1,0.3,2.1,0.3,3.2C218.7,433.8,211.6,441,202.7,441z"/>
<path class="st1" d="M468.2,423.4c0-0.4,0-0.8-0.1-1.1c0-0.2,0-0.5-0.1-0.7c0-0.5-0.1-1-0.1-1.4c0,0,0-0.1,0-0.1   c0-0.2,0-0.4-0.1-0.5c-0.2-1.4-0.4-2.7-0.8-4c-0.1-0.3-0.2-0.6-0.3-1c-0.1-0.4-0.2-0.8-0.4-1.2c-0.1-0.4-0.3-0.8-0.4-1.2   c-0.1-0.4-0.3-0.8-0.4-1.2c-0.1-0.4-0.3-0.7-0.4-1.1c-0.2-0.5-0.4-0.9-0.6-1.4c-0.2-0.3-0.3-0.7-0.5-1c-0.2-0.4-0.4-0.8-0.6-1.1   c-0.1-0.3-0.3-0.5-0.4-0.8c-0.5-0.9-1-1.7-1.6-2.5c-0.2-0.4-0.5-0.7-0.7-1.1c0,0,0,0,0-0.1c0,0-0.1-0.1-0.1-0.1c0,0,0,0,0,0   c-0.2-0.3-0.4-0.6-0.7-0.9c0,0-0.1-0.1-0.1-0.1c-0.2-0.3-0.4-0.6-0.7-0.8c-0.2-0.3-0.5-0.6-0.7-0.9c0,0-0.1-0.1-0.1-0.1   c-0.4-0.4-0.8-0.9-1.2-1.3c-0.1-0.1-0.2-0.2-0.3-0.3c-0.1-0.1-0.2-0.1-0.2-0.2c-0.1-0.1-0.2-0.3-0.4-0.4c-0.3-0.3-0.6-0.6-0.9-0.8   c-0.2-0.2-0.4-0.4-0.6-0.6c-0.4-0.4-0.9-0.7-1.3-1.1c-0.4-0.4-0.9-0.7-1.3-1c-0.1-0.1-0.2-0.1-0.3-0.2c-0.2-0.2-0.4-0.3-0.6-0.4   c-1.3-0.9-2.7-1.8-4.1-2.6c-0.6-0.3-1.1-0.6-1.7-0.9c-1.5-0.7-3-1.3-4.5-1.8c-0.3-0.1-0.6-0.2-0.9-0.3c-0.4-0.1-0.8-0.3-1.3-0.4   c-0.4-0.1-0.9-0.2-1.3-0.3c-0.3-0.1-0.6-0.1-0.9-0.2c-0.2,0-0.4-0.1-0.6-0.1c-0.2,0-0.4-0.1-0.7-0.1c0,0-0.1,0-0.1,0   c-0.3,0-0.6-0.1-0.9-0.1c-0.5-0.1-0.9-0.1-1.4-0.2c-0.2,0-0.5-0.1-0.7-0.1c-0.1,0-0.3,0-0.4,0c-0.4,0-0.8-0.1-1.2-0.1   c-0.3,0-0.6,0-0.9,0c-0.5,0-1,0-1.5,0c-0.5,0-1,0-1.5,0c0,0,0,0,0,0c-0.3,0-0.6,0-0.9,0c-0.5,0-1,0.1-1.5,0.1   c-0.5,0-1.1,0.1-1.6,0.2c-0.3,0-0.6,0.1-0.9,0.1c-1.1,0.2-2.1,0.4-3.1,0.6c-0.4,0.1-0.7,0.2-1,0.3c-0.5,0.1-0.9,0.3-1.4,0.4   c-0.6,0.2-1.2,0.4-1.8,0.6c-1.3,0.5-2.6,1.1-3.9,1.7c-0.5,0.2-1,0.5-1.4,0.7c-0.6,0.3-1.1,0.6-1.7,1c-11.6,7-19.3,19.8-19.3,34.3   c0,14.5,7.7,27.3,19.3,34.3c0.3,0.2,0.6,0.3,0.9,0.5c0.2,0.1,0.5,0.3,0.7,0.4c0.3,0.2,0.6,0.3,0.9,0.5c0.4,0.2,0.8,0.4,1.2,0.6   c0.3,0.2,0.7,0.3,1,0.5c0.5,0.2,1,0.4,1.5,0.6c0.4,0.2,0.8,0.3,1.2,0.5c0,0,0,0,0.1,0c0.4,0.1,0.7,0.2,1.1,0.4   c0.5,0.1,0.9,0.3,1.4,0.4c0.4,0.1,0.8,0.2,1.2,0.3c0.3,0.1,0.7,0.2,1,0.2c0.3,0.1,0.7,0.1,1,0.2c0.4,0.1,0.7,0.1,1.1,0.2   c0.3,0,0.6,0.1,0.9,0.1c0.2,0,0.4,0.1,0.7,0.1c0.3,0,0.6,0.1,0.9,0.1c0.5,0.1,1,0.1,1.5,0.1c0.3,0,0.6,0,0.9,0c0,0,0,0,0,0   c0.5,0,1,0,1.5,0c0.5,0,1,0,1.5,0c0.3,0,0.6,0,0.9,0c0.4,0,0.8,0,1.2-0.1c0.1,0,0.3,0,0.4,0c0.2,0,0.5,0,0.7-0.1   c0.2,0,0.5-0.1,0.7-0.1c0.2,0,0.5-0.1,0.7-0.1c0.3,0,0.6-0.1,0.9-0.1c0,0,0.1,0,0.1,0c0.2,0,0.4-0.1,0.7-0.1c0.2,0,0.4-0.1,0.6-0.1   c0.5-0.1,1.1-0.2,1.6-0.4c0.4-0.1,0.8-0.2,1.2-0.3c0.5-0.1,1.1-0.3,1.6-0.5c0.4-0.1,0.8-0.3,1.3-0.5c1.8-0.7,3.6-1.5,5.2-2.4   c0.2-0.1,0.4-0.2,0.6-0.3c0.8-0.5,1.7-1,2.5-1.6c0.3-0.2,0.6-0.4,0.9-0.6c0.2-0.1,0.4-0.3,0.6-0.4c0.2-0.1,0.4-0.3,0.6-0.4   c0.4-0.3,0.9-0.7,1.3-1c0.3-0.3,0.6-0.5,0.9-0.8c0.2-0.2,0.4-0.4,0.6-0.6c0.2-0.2,0.5-0.4,0.7-0.7c0.1-0.1,0.2-0.2,0.4-0.4   c0.2-0.2,0.4-0.5,0.7-0.7c0.2-0.2,0.4-0.5,0.7-0.7c0.2-0.2,0.4-0.5,0.6-0.7c0.2-0.2,0.3-0.4,0.5-0.6c0.3-0.4,0.7-0.8,1-1.3   c0.2-0.3,0.4-0.6,0.7-0.9c0.1-0.1,0.1-0.2,0.2-0.3c0.2-0.3,0.4-0.5,0.5-0.8c0.3-0.5,0.6-0.9,0.9-1.4c0.1-0.2,0.3-0.4,0.4-0.7   c0.1-0.1,0.1-0.2,0.2-0.3c0.2-0.3,0.3-0.6,0.5-0.8c0.2-0.3,0.3-0.6,0.4-0.9c0.7-1.4,1.4-2.9,2-4.5c0.1-0.3,0.2-0.6,0.3-0.9   c0.1-0.2,0.2-0.5,0.2-0.7c0.1-0.3,0.2-0.6,0.3-0.8c0.1-0.3,0.2-0.6,0.2-0.8c0.1-0.2,0.1-0.4,0.2-0.6c0.1-0.3,0.1-0.5,0.2-0.8   c0.1-0.3,0.2-0.6,0.2-1c0.1-0.5,0.2-0.9,0.3-1.4c0.1-0.4,0.1-0.8,0.2-1.1c0-0.3,0.1-0.5,0.1-0.8c0.1-0.5,0.1-0.9,0.1-1.4   c0.1-0.7,0.1-1.4,0.1-2.1c0-0.2,0-0.4,0-0.6c0-0.2,0-0.5,0-0.7c0-0.4,0-0.8,0-1.3C468.2,423.6,468.2,423.5,468.2,423.4z M428.2,441   c-8.9,0-16-7.2-16-16c0-8.9,7.2-16,16-16c8.9,0,16,7.2,16,16C444.2,433.8,437,441,428.2,441z"/>
<rect class="st1" height="112.7" width="135" x="255.9" y="47"/>
<rect class="st0" height="77.3" width="36.8" x="205.1" y="82.3"/>
<rect class="st0" height="77.3" width="36.8" x="404.9" y="82.3"/>
</g>
</svg>