<svg xmlns="http://www.w3.org/2000/svg" data-name="Layer 1" viewBox="0 0 512 512" id="upi-bhim-transfer"><rect width="304" height="512" x="101.04" fill="#2c2a2d" rx="37.08"></rect><path fill="#52bbe9" d="M397.84,421.94V474.5a30,30,0,0,1-30,30H138.91a30,30,0,0,1-30-30V37.62a30,30,0,0,1,30-30H367.84a30,30,0,0,1,30,30V421.94Z"></path><path fill="#1cabe1" d="M367.84,7.62h-30a30,30,0,0,1,30,30V474.5a30,30,0,0,1-30,30h30a30,30,0,0,0,30-30V37.62A30,30,0,0,0,367.84,7.62Z"></path><path fill="#e1e1e3" d="M184.66,7.5l12.43,24.68a17.19,17.19,0,0,0,15.37,9.43h81.83a17.18,17.18,0,0,0,15.36-9.43L322.08,7.5Z"></path><path fill="#c8c5cc" d="M292.08,7.5,279.65,32.18a17.18,17.18,0,0,1-15.36,9.43h30a17.18,17.18,0,0,0,15.36-9.43L322.08,7.5Z"></path><path fill="#fff" d="M149,239a88.06,88.06,0,0,1-61.88-25,83.85,83.85,0,0,1,0-120.67,89.1,89.1,0,0,1,123.75,0,83.84,83.84,0,0,1,0,120.68A88.09,88.09,0,0,1,149,239Z"></path><path fill="#e1e1e3" d="M210.91,93.34a88,88,0,0,0-61.87-25,89.75,89.75,0,0,0-15,1.27,87.61,87.61,0,0,1,46.87,23.72,83.84,83.84,0,0,1,0,120.68A87.61,87.61,0,0,1,134,237.74,90.82,90.82,0,0,0,149,239a88.09,88.09,0,0,0,61.87-25,83.84,83.84,0,0,0,0-120.68Z"></path><polygon fill="#107f47" points="195.19 153.68 151.38 197.48 151.38 109.87 195.19 153.68"></polygon><polygon fill="#eab234" points="161.69 153.68 117.89 197.48 117.89 109.87 161.69 153.68"></polygon><path fill="#fed947" d="M363,444.5a88.09,88.09,0,0,1-61.87-25,83.84,83.84,0,0,1,0-120.68,89.1,89.1,0,0,1,123.75,0,83.87,83.87,0,0,1,0,120.68A88.1,88.1,0,0,1,363,444.5Z"></path><path fill="#fecc30" d="M424.84,298.83a88.1,88.1,0,0,0-61.88-25,91,91,0,0,0-15,1.27,87.64,87.64,0,0,1,46.88,23.72,83.87,83.87,0,0,1,0,120.68A87.64,87.64,0,0,1,348,443.23a89.93,89.93,0,0,0,15,1.27,88.1,88.1,0,0,0,61.88-25,83.87,83.87,0,0,0,0-120.68Z"></path><path fill="#3c3b41" d="M156.68,202.72l43.81-43.81a7.52,7.52,0,0,0,0-10.61l-43.81-43.8a7.5,7.5,0,0,0-12.8,5.3v15.39L123.19,104.5a7.5,7.5,0,0,0-12.81,5.3v87.61a7.5,7.5,0,0,0,4.63,6.93,7.42,7.42,0,0,0,2.87.57,7.54,7.54,0,0,0,5.31-2.19L143.88,182v15.38a7.48,7.48,0,0,0,4.63,6.93,7.34,7.34,0,0,0,2.86.57A7.52,7.52,0,0,0,156.68,202.72Zm2.2-35.69,8.11-8.12a7.5,7.5,0,0,0,0-10.61l-8.11-8.11V127.91l25.7,25.7-25.7,25.7Zm-12.8-8.42h0l-20.69,20.69v-51.4l20.69,20.68h0l5,5Zm284,134.78A95.19,95.19,0,0,0,405.33,276V37.55A37.54,37.54,0,0,0,367.83.05H323.4a7.33,7.33,0,0,0-2.6,0H185.94a7.33,7.33,0,0,0-2.6,0H138.91a37.54,37.54,0,0,0-37.5,37.5V73.27A94.87,94.87,0,0,0,81.93,87.9a91.33,91.33,0,0,0,0,131.41A95.25,95.25,0,0,0,101.41,234V474.43a37.54,37.54,0,0,0,37.5,37.5H367.83a37.54,37.54,0,0,0,37.5-37.5V442.21a95.19,95.19,0,0,0,24.74-17.4,91.35,91.35,0,0,0,0-131.42ZM309.85,15.05,303,28.74a9.63,9.63,0,0,1-8.66,5.3H212.45a9.62,9.62,0,0,1-8.66-5.3l-6.9-13.69ZM92.4,208.58a76.33,76.33,0,0,1,0-109.94,81.59,81.59,0,0,1,113.27,0,76.36,76.36,0,0,1,0,109.94,81.59,81.59,0,0,1-113.27,0ZM390.33,474.43a22.52,22.52,0,0,1-22.5,22.5H138.91a22.52,22.52,0,0,1-22.5-22.5V240.83A96.9,96.9,0,0,0,149,246.44a95.52,95.52,0,0,0,67.11-27.13,91.34,91.34,0,0,0,0-131.41A95.51,95.51,0,0,0,149,60.78a96.9,96.9,0,0,0-32.62,5.61V37.55a22.52,22.52,0,0,1,22.5-22.5H180.1l10.29,20.44A24.55,24.55,0,0,0,212.45,49h81.84a24.56,24.56,0,0,0,22.06-13.55l10.29-20.44h41.19a22.52,22.52,0,0,1,22.5,22.5V270.17a97.14,97.14,0,0,0-27.37-3.9,95.53,95.53,0,0,0-67.11,27.12,91.35,91.35,0,0,0,0,131.42A95.53,95.53,0,0,0,363,451.93a97.14,97.14,0,0,0,27.37-3.9Zm29.27-60.36a81.6,81.6,0,0,1-113.28,0,76.36,76.36,0,0,1,0-109.94,81.6,81.6,0,0,1,113.28,0,76.36,76.36,0,0,1,0,109.94ZM263.31,154.68c0,.16,0,.31,0,.46a.25.25,0,0,1,0,.08,7.45,7.45,0,0,0,2.63,5.05l28.76,24.21A7.5,7.5,0,0,0,304.4,173l-13.15-11.06h58a7.5,7.5,0,0,1,7.5,7.5v65.62a7.5,7.5,0,0,0,15,0V169.44a22.52,22.52,0,0,0-22.5-22.5h-59L304.41,134a7.5,7.5,0,1,0-10.12-11.08l-27.75,25.33a7.49,7.49,0,0,0-3.23,6.17v.24Zm137.3,162.66a7.5,7.5,0,0,0-7.5-7.5h-60.3a7.5,7.5,0,0,0,0,15h21.08a18.07,18.07,0,0,1,16.2,9.86H332.81a7.5,7.5,0,0,0,0,15h37.28a18.07,18.07,0,0,1-16.2,9.86H332.71l-.43,0-.32,0-.4.06-.33.06-.37.09-.34.1-.36.13-.31.12c-.13.05-.25.12-.38.18l-.27.14-.36.22-.27.16-.31.24-.28.21-.26.24-.29.28-.07.07-.16.18-.26.31-.21.28a3.37,3.37,0,0,0-.21.31c-.07.1-.13.21-.2.32a3.07,3.07,0,0,0-.17.31c-.06.11-.11.23-.16.34s-.1.22-.14.33a3.62,3.62,0,0,0-.13.35c0,.11-.08.23-.11.34a2.37,2.37,0,0,0-.09.36c0,.12-.06.24-.08.35l-.06.39c0,.11,0,.22,0,.34s0,.28,0,.42,0,.14,0,.22,0,.07,0,.1,0,.28,0,.42,0,.22,0,.33l.06.38.06.35.09.34c0,.13.06.25.1.37l.12.33c0,.12.09.24.13.35s.11.23.17.34l.15.31c.07.11.14.22.2.33a2.9,2.9,0,0,0,.19.29,3.15,3.15,0,0,0,.22.29l.23.3c.07.09.15.17.22.25l.29.3a.46.46,0,0,1,.07.07l45.6,43a7.5,7.5,0,0,0,10.29-10.91l-31.86-30.07h2.2A32.92,32.92,0,0,0,386,349.7h7.13a7.5,7.5,0,0,0,0-15H386a31.94,31.94,0,0,0-4.27-9.86h11.4A7.5,7.5,0,0,0,400.61,317.34ZM321.85,466.93h-137a7.5,7.5,0,1,0,0,15h137a7.5,7.5,0,0,0,0-15ZM210.61,379.52a7.5,7.5,0,1,0,10.11,11.08l27.76-25.34a7.47,7.47,0,0,0,3.23-6.16s0-.08,0-.12,0-.08,0-.13,0-.3,0-.45a.28.28,0,0,1,0-.09,7.49,7.49,0,0,0-2.63-5l-28.76-24.21a7.5,7.5,0,1,0-9.66,11.48l13.14,11.06h-61a7.51,7.51,0,0,1-7.5-7.5V268.94a7.5,7.5,0,0,0-15,0V344.1a22.53,22.53,0,0,0,22.5,22.5h62Z"></path></svg>